<svg width="381" height="381" viewBox="0 0 381 381" fill="none" xmlns="http://www.w3.org/2000/svg">
<path d="M271 0H110C49.249 0 0 49.249 0 110V271C0 331.752 49.249 381 110 381H271C331.752 381 381 331.752 381 271V110C381 49.249 331.752 0 271 0ZM345 274C345 312.66 313.66 344 275 344C275 344 234.182 346 192.666 346C149.707 346 106 344 106 344C67.34 344 36 312.66 36 274C36 274 35 234.698 35 194C35 150.305 36 105 36 105C36 66.34 67.34 35 106 35C106 35 150.168 33 194.666 33C234.397 33 275 35 275 35C313.66 35 345 66.34 345 105C345 105 347 150.305 347 194C347 234.698 345 274 345 274Z" fill="black"/>
<path d="M292 65C304.702 65 315 75.297 315 88C315 100.703 304.702 111 292 111C279.298 111 269 100.703 269 88C269 75.297 279.298 65 292 65Z" fill="black"/>
<path d="M190.5 92C136.1 92 92 136.1 92 190.5C92 244.9 136.1 289 190.5 289C244.899 289 289 244.9 289 190.5C289 136.1 244.899 92 190.5 92ZM190.5 253C155.43 253 127 224.569 127 189.5C127 154.43 155.43 126 190.5 126C225.57 126 254 154.43 254 189.5C254 224.569 225.57 253 190.5 253Z" fill="black"/>
</svg>
